<svg width="73" height="14" viewBox="0 0 73 14" fill="none" xmlns="http://www.w3.org/2000/svg">
<path d="M13.0432 6.47684V13.1084H10.4733L10.3168 11.9221C9.38748 12.9421 8.03716 13.4851 6.65193 13.3958C5.88982 13.4018 5.13283 13.272 4.41724 13.0126C3.72436 12.7591 3.08712 12.3764 2.54009 11.8853C1.96021 11.3489 1.51181 10.6886 1.22907 9.95474C0.895015 9.08438 0.730722 8.15929 0.74489 7.22842C0.666293 5.49646 1.28815 3.80484 2.47305 2.52737C3.69425 1.3034 5.38484 0.652168 7.12122 0.736842C8.49624 0.693475 9.8473 1.10011 10.9649 1.89368C12.0307 2.69579 12.7258 3.88792 12.8942 5.20211H9.10264C8.90028 4.2602 8.02487 3.61152 7.05418 3.68421C6.34303 3.65352 5.6738 4.01719 5.31856 4.62737C4.89241 5.42178 4.69163 6.3155 4.73754 7.21368C4.73754 9.38982 5.58921 10.4779 7.29254 10.4779C7.7448 10.47 8.1849 10.3317 8.55887 10.08C8.92877 9.85716 9.19606 9.50022 9.30377 9.08526H7.5756V6.47684H13.0432Z" fill="white"/>
<path d="M18.2053 13.1011H14.2126V1.05368H23.6877V3.86842H18.2053V6.07895H22.5704V8.84211H18.2053V13.1011Z" fill="white"/>
<path d="M28.5892 13.1011H24.5816V1.05368H28.5743L28.5892 13.1011Z" fill="white"/>
<path d="M33.58 1.05368L37.9302 7.63368L37.7738 4.88526V1.05368H41.5951V13.1011H37.8706L33.5204 6.54316L33.6694 9.28421V13.1011H29.8406V1.05368H33.58Z" fill="white"/>
<path d="M46.8764 13.1011H42.8838V1.05368H46.8764V13.1011Z" fill="white"/>
<path d="M47.7703 4.21474V1.05368H58.9438V4.21474H55.3459V13.1011H51.3533V4.21474H47.7703Z" fill="white"/>
<path d="M68.1731 1.05368L67.4952 2.37263L66.0724 5.13579L63.9793 1.05368H59.5099L64.0389 8.71684V13.1011H67.4952H68.0315V8.65053L72.5679 1.05368H68.1731Z" fill="white"/>
</svg>
